<svg width="100" height="100" viewBox="0 0 100 100" fill="none" xmlns="http://www.w3.org/2000/svg">
<path fill-rule="evenodd" clip-rule="evenodd" d="M6.017 4.313l55.333 -4.087c6.797 -0.583 8.543 -0.19 12.817 2.917l17.663 12.443c2.913 2.14 3.883 2.723 3.883 5.053v68.243c0 4.277 -1.553 6.807 -6.99 7.193L24.467 99.967c-4.08 0.193 -6.023 -0.39 -8.16 -3.113L3.3 79.94c-2.333 -3.113 -3.3 -5.443 -3.3 -8.167V11.113c0 -3.497 1.553 -6.413 6.017 -6.8z" fill="#fff"/>
<path fill-rule="evenodd" clip-rule="evenodd" d="M61.35 0.227l-55.333 4.087C1.553 4.7 0 7.617 0 11.113v60.66c0 2.723 0.967 5.053 3.3 8.167l13.007 16.913c2.137 2.723 4.08 3.307 8.16 3.113l63.257 -4.853c5.437 -0.387 6.99 -2.917 6.99 -7.193V20.64c0 -2.21 -0.873 -2.847 -3.443 -4.733L74.167 3.143c-4.273 -3.107 -6.02 -3.5 -12.817 -2.917zM25.92 19.523c-5.247 0.353 -6.437 0.433 -9.417 -1.99L8.927 11.507c-0.77 -0.78 -0.383 -1.753 1.557 -1.947l53.193 -3.887c4.467 -0.39 6.793 1.167 8.54 2.527l9.123 6.61c0.39 0.197 1.36 1.36 0.193 1.36l-54.933 4.083 -0.68 0.27zm2.68 23.487c0 2.527 0.272 3.434 1.43 3.487l81.8 -5.864c0.818 -0.053 1.357 -0.719 1.357 -3.434v-3.33c0 -1.77 -0.818 -2.745 -3.206 -2.745L26.557 36.583c-2.392 0 -3.957 0.515 -3.957 2.745v3.682zm0 28.666c0 2.723 1.42 2.641 4.083 2.641l81.67 -5.864c2.334 -0.129 3.33 -0.78 3.33 -2.98v-3.487c0 -1.753 -1.244 -2.967 -3.16 -2.967L30.48 60.91c-2.05 0.323 -1.9 2.193 -1.88 3.503v7.263z" fill="#000"/>
</svg>
